HIERARCHY
ROOT Hips
{
    OFFSET 0.000000 0.000000 0.000000
    CHANNELS 6 Xposition Yposition Zposition Zrotation Xrotation Yrotation
    JOINT Spine
    {
        OFFSET -0.000000 0.083210 0.000000
        CHANNELS 3 Zrotation Xrotation Yrotation
        JOINT Spine1
        {
            OFFSET -0.000000 0.256334 0.000000
            CHANNELS 3 Zrotation Xrotation Yrotation
            JOINT Neck
            {
                OFFSET -0.000000 0.275576 0.002912
                CHANNELS 3 Zrotation Xrotation Yrotation
                JOINT Head
                {
                    OFFSET -0.000000 0.157287 0.020295
                    CHANNELS 3 Zrotation Xrotation Yrotation
                    End Site
                    {
                        OFFSET -0.000000 0.202951 0.000000
                    }
                }
            }
            JOINT LeftShoulder
            {
                OFFSET 0.041044 0.235234 -0.000041
                CHANNELS 3 Zrotation Xrotation Yrotation
                JOINT LeftArm
                {
                    OFFSET 0.117964 0.000000 0.000000
                    CHANNELS 3 Zrotation Xrotation Yrotation
                    JOINT LeftForeArm
                    {
                        OFFSET 0.291248 0.000000 0.000000
                        CHANNELS 3 Zrotation Xrotation Yrotation
                        JOINT LeftHand
                        {
                            OFFSET 0.245673 0.000000 0.000000
                            CHANNELS 3 Zrotation Xrotation Yrotation
                            End Site
                            {
                                OFFSET 0.152213 0.000000 0.000000
                            }
                        }
                    }
                }
            }
            JOINT RightShoulder
            {
                OFFSET -0.040052 0.235234 -0.000041
                CHANNELS 3 Zrotation Xrotation Yrotation
                JOINT RightArm
                {
                    OFFSET -0.117964 0.000000 0.000000
                    CHANNELS 3 Zrotation Xrotation Yrotation
                    JOINT RightForeArm
                    {
                        OFFSET -0.291248 0.000000 0.000000
                        CHANNELS 3 Zrotation Xrotation Yrotation
                        JOINT RightHand
                        {
                            OFFSET -0.245673 0.000000 0.000000
                            CHANNELS 3 Zrotation Xrotation Yrotation
                            End Site
                            {
                                OFFSET -0.152213 0.000000 0.000000
                            }
                        }
                    }
                }
            }
        }
    }
    JOINT LeftUpLeg
    {
        OFFSET 0.101475 0.000000 0.000000
        CHANNELS 3 Zrotation Xrotation Yrotation
        JOINT LeftLeg
        {
            OFFSET -0.000000 -0.446535 0.000000
            CHANNELS 3 Zrotation Xrotation Yrotation
            JOINT LeftFoot
            {
                OFFSET -0.000000 -0.400037 0.000000
                CHANNELS 3 Zrotation Xrotation Yrotation
                JOINT LeftToeBase
                {
                    OFFSET -0.000000 -0.065959 0.152213
                    CHANNELS 3 Zrotation Xrotation Yrotation
                    End Site
                    {
                        OFFSET -0.000000 0.000000 0.040590
                    }
                }
            }
        }
    }
    JOINT RightUpLeg
    {
        OFFSET -0.101475 0.000000 0.000000
        CHANNELS 3 Zrotation Xrotation Yrotation
        JOINT RightLeg
        {
            OFFSET -0.000000 -0.446535 0.000000
            CHANNELS 3 Zrotation Xrotation Yrotation
            JOINT RightFoot
            {
                OFFSET -0.000000 -0.400037 0.000000
                CHANNELS 3 Zrotation Xrotation Yrotation
                JOINT RightToeBase
                {
                    OFFSET -0.000000 -0.065959 0.152213
                    CHANNELS 3 Zrotation Xrotation Yrotation
                    End Site
                    {
                        OFFSET -0.000000 0.000000 0.040590
                    }
                }
            }
        }
    }
}
MOTION
Frames:    13
Frame Time:    0.008333
3.719877    0.979226    -0.147898    -0.929410    -0.252408    -90.845993    -0.852444    -2.099042    -0.830649    -1.410388    6.383740    -0.193168    -0.642201    -8.563354    2.648231    0.742991    5.144126    2.571194    14.252272    1.623396    -0.765961    -22.822039    -3.365344    7.051634    0.318881    -3.466615    -1.367360    12.197745    -3.071379    3.668330    -10.145029    2.503723    4.457055    22.413301    -1.186035    -3.502990    -0.091662    -5.157723    0.126479    -1.160208    -5.108720    -4.846783    2.989833    4.475976    1.786147    -0.883886    1.875595    7.078460    -2.381748    -6.157746    -2.982611    -0.121752    3.599921    1.040905    -5.308028    0.939666    2.598225    2.065275    10.212500    3.943673    2.859613    -10.988235    -7.871680    0.001611    2.704629    0.801574    
3.719952    0.979229    -0.147946    -0.928701    -0.251358    -90.833069    -0.851493    -2.081046    -0.836533    -1.409317    6.364560    -0.195460    -0.719401    -8.599446    2.644355    0.743913    5.198543    2.562582    14.264879    1.613695    -0.767120    -22.809580    -3.381216    7.052634    0.309439    -3.459462    -1.358422    12.198270    -3.064090    3.670491    -10.143415    2.494143    4.436462    22.410011    -1.218175    -3.515164    -0.076444    -5.145831    0.126034    -1.186430    -5.095689    -4.850675    2.996209    4.467448    1.790787    -0.885825    1.877260    7.063159    -2.384327    -6.153444    -2.983227    -0.122364    3.594659    1.046546    -5.304716    0.938359    2.612783    2.071677    10.209641    3.939635    2.854025    -10.989211    -7.895505    0.001669    2.695735    0.799413    
3.720024    0.979232    -0.147984    -0.930410    -0.252304    -90.820625    -0.851035    -2.062985    -0.841671    -1.413005    6.348680    -0.197161    -0.787982    -8.622364    2.634803    0.740836    5.244063    2.549241    14.272838    1.601294    -0.763921    -22.786903    -3.388491    7.050104    0.304194    -3.454716    -1.353467    12.177004    -3.060478    3.667104    -10.140698    2.485923    4.419101    22.410641    -1.241227    -3.528189    -0.066964    -5.132475    0.119820    -1.196772    -5.081944    -4.848821    2.997487    4.453582    1.794022    -0.882365    1.896330    7.045099    -2.383087    -6.160491    -2.982139    -0.122528    3.599902    1.047537    -5.303613    0.937157    2.636799    2.079751    10.212274    3.914611    2.843727    -10.994533    -7.906219    0.001607    2.703074    0.794111    
3.720084    0.979236    -0.148026    -0.933711    -0.252925    -90.808685    -0.850526    -2.045715    -0.844822    -1.420296    6.331701    -0.198240    -0.843230    -8.626120    2.620595    0.727399    5.271741    2.533659    14.282993    1.587546    -0.762427    -22.760668    -3.392591    7.048594    0.315861    -3.420721    -1.346456    12.005363    -3.036031    3.627780    -10.133924    2.484969    4.406063    22.409630    -1.265863    -3.543914    -0.077814    -5.121686    0.120530    -0.985562    -5.079654    -4.893238    3.000390    4.447377    1.794579    -0.882056    1.903686    7.054134    -2.390903    -6.159370    -3.002205    -0.122149    3.596890    1.044534    -5.301158    0.939782    2.671549    2.085823    10.213166    3.907411    2.838199    -11.002565    -7.945034    0.001623    2.699426    0.789877    
3.720127    0.979236    -0.148070    -0.942292    -0.251284    -90.798363    -0.845840    -2.025455    -0.848917    -1.432235    6.318020    -0.199181    -0.876623    -8.650750    2.594090    0.681181    5.350906    2.512167    14.290426    1.578479    -0.757301    -22.733940    -3.376079    7.045450    0.315421    -3.419590    -1.354576    11.938481    -3.037939    3.619052    -10.127461    2.479011    4.394889    22.409258    -1.280632    -3.561783    -0.066016    -5.116758    0.126833    -0.982701    -5.074743    -4.906939    3.005589    4.444369    1.796507    -0.881516    1.919135    7.026762    -2.387542    -6.164094    -2.986851    -0.122044    3.591999    1.044007    -5.298374    0.949883    2.716048    2.097639    10.212393    3.891879    2.825335    -11.009402    -7.984629    0.001618    2.699683    0.788087    
3.720176    0.979235    -0.148116    -0.947120    -0.248634    -90.791115    -0.839426    -2.010900    -0.850546    -1.445888    6.307640    -0.198968    -0.914293    -8.639003    2.573289    0.652770    5.359852    2.493429    14.300492    1.571406    -0.751880    -22.706871    -3.357645    7.040589    0.297714    -3.388224    -1.339682    11.869707    -3.015884    3.552790    -10.120646    2.475529    4.386926    22.406094    -1.305116    -3.580989    -0.051339    -5.109781    0.131489    -0.971693    -5.068169    -4.917020    3.012028    4.440742    1.800575    -0.882209    1.928039    7.013454    -2.392795    -6.164159    -2.986706    -0.121991    3.587668    1.043889    -5.295147    0.953500    2.781167    2.115487    10.209918    3.840854    2.818058    -11.013413    -8.005296    0.001611    2.700591    0.787835    
3.720212    0.979239    -0.148160    -0.955574    -0.246857    -90.780632    -0.834771    -1.994628    -0.853691    -1.458784    6.297855    -0.199751    -0.959341    -8.588286    2.562219    0.649975    5.300376    2.479825    14.301809    1.575405    -0.746634    -22.673595    -3.335708    7.029804    0.300830    -3.406329    -1.371579    11.732968    -3.033074    3.602241    -10.106161    2.480022    4.379115    22.396784    -1.318244    -3.595772    -0.041102    -5.108383    0.131319    -0.969600    -5.066779    -4.927798    3.015304    4.438784    1.803459    -0.877230    1.940864    6.997034    -2.395361    -6.167174    -2.982425    -0.122260    3.588724    1.046111    -5.295384    0.965151    2.859271    2.140490    10.204658    3.800295    2.794879    -11.017752    -8.055153    0.001682    2.692039    0.793583    
3.720239    0.979236    -0.148205    -0.962834    -0.243561    -90.774330    -0.828822    -1.984295    -0.854907    -1.471195    6.296071    -0.199452    -0.990832    -8.565805    2.539366    0.634007    5.297449    2.457034    14.312117    1.568626    -0.743258    -22.676447    -3.253096    7.016839    0.337927    -3.445798    -1.370855    11.632598    -3.075569    3.599528    -10.102955    2.476924    4.370256    22.394981    -1.350306    -3.611453    -0.026642    -5.104006    0.139050    -0.978366    -5.061921    -4.942505    3.022989    4.438448    1.799497    -0.879574    1.952079    6.983954    -2.394702    -6.171898    -2.972919    -0.122497    3.593855    1.047738    -5.297122    0.976615    2.960002    2.174679    10.200904    3.763450    2.769178    -11.030425    -8.128166    0.001726    2.684132    0.788571    
3.720264    0.979236    -0.148257    -0.968674    -0.238887    -90.770996    -0.822158    -1.976930    -0.853769    -1.485186    6.296547    -0.198324    -1.014797    -8.537387    2.516512    0.619319    5.286916    2.434443    14.321122    1.571747    -0.734799    -22.654146    -3.229121    7.006999    0.351740    -3.484935    -1.420611    11.489937    -3.113264    3.655786    -10.097869    2.474711    4.366369    22.404932    -1.333092    -3.627183    -0.033355    -5.119425    0.137505    -0.965632    -5.077775    -4.953780    3.030190    4.436629    1.808385    -0.876211    1.963259    6.978694    -2.401453    -6.175331    -2.980277    -0.122166    3.591727    1.045077    -5.297607    0.983744    3.073107    2.210625    10.200341    3.735740    2.743912    -11.046865    -8.216021    0.001717    2.684196    0.784533    
3.720279    0.979231    -0.148311    -0.976370    -0.234949    -90.769043    -0.820378    -1.972161    -0.851243    -1.490024    6.303084    -0.197235    -1.039155    -8.501241    2.493956    0.607262    5.267826    2.411624    14.331930    1.561530    -0.732906    -22.645317    -3.198122    7.006207    0.364866    -3.492369    -1.448774    11.331439    -3.123874    3.672798    -10.094981    2.478510    4.364349    22.404524    -1.342293    -3.642237    -0.032078    -5.121942    0.137936    -0.954837    -5.080710    -4.960706    3.037580    4.439470    1.815389    -0.875763    1.971732    6.972615    -2.403700    -6.180830    -2.984683    -0.121950    3.592498    1.043165    -5.299940    0.991392    3.189685    2.251787    10.205606    3.704126    2.709119    -11.065775    -8.306731    0.001752    2.679123    0.784705    
3.720179    0.979168    -0.148276    -1.014213    -0.268496    -90.760956    -0.846974    -1.956155    -0.855618    -1.505818    6.331476    -0.197268    -1.058193    -8.468122    2.478289    0.595736    5.247938    2.396125    14.341455    1.559135    -0.731709    -22.632465    -3.188232    7.007183    0.373187    -3.494676    -1.477674    11.169971    -3.129167    3.693624    -10.089821    2.478294    4.364795    22.397932    -1.363182    -3.655618    -0.095481    -5.030847    0.096252    -0.470326    -5.010633    -4.921424    2.996494    4.488744    1.784127    -0.866459    1.955539    7.006049    -2.407028    -6.177433    -2.995868    -0.120888    3.590315    1.034251    -5.358238    1.043437    3.300431    2.312865    10.202518    3.710829    2.667108    -11.096142    -8.430142    0.001779    2.675068    0.784661    
3.720183    0.979164    -0.148334    -1.022346    -0.263162    -90.761360    -0.844453    -1.957768    -0.854188    -1.511138    6.350527    -0.196280    -1.070301    -8.430156    2.461981    0.578761    5.222695    2.381282    14.350811    1.558534    -0.728200    -22.625731    -3.171014    7.002601    0.384615    -3.499972    -1.504610    11.040802    -3.135520    3.723641    -10.080358    2.480965    4.368928    22.425840    -1.210520    -3.657263    -0.140828    -5.097416    0.061629    -0.635455    -5.070435    -4.868024    3.006129    4.491987    1.785374    -0.866593    1.968165    6.987659    -2.410068    -6.186009    -2.979976    -0.121672    3.589216    1.041040    -5.361184    1.049383    3.424676    2.358774    10.212253    3.691447    2.632885    -11.117399    -8.537002    0.001872    2.661177    0.783383    
3.720195    0.979156    -0.148388    -1.027389    -0.258415    -90.764763    -0.846615    -1.958236    -0.848681    -1.508399    6.362876    -0.194306    -1.067314    -8.419907    2.434094    0.532526    5.261364    2.360396    14.360659    1.550584    -0.725998    -22.622889    -3.161889    6.997994    0.391367    -3.491927    -1.524299    10.954760    -3.131387    3.710709    -10.077619    2.473904    4.367363    22.417591    -1.214186    -3.669610    -0.134966    -5.087049    0.061128    -0.651045    -5.059412    -4.869853    3.014649    4.492791    1.784522    -0.868051    1.977360    6.980314    -2.409306    -6.193018    -2.970089    -0.122532    3.590897    1.048272    -5.365316    1.048353    3.560466    2.408092    10.226377    3.675432    2.584711    -11.137803    -8.662188    0.001913    2.655766    0.785327    
